<?xml version="1.0" ?><svg enable-background="new 0 0 504 504" id="Layer_1" version="1.1" viewBox="0 0 504 504" xml:space="preserve" xmlns="http://www.w3.org/2000/svg" xmlns:xlink="http://www.w3.org/1999/xlink"><path d="M454.5,258.9c-9.2,58.5-27.1,75.6-58.8,114.9c-31.7,33.3-77.3,88.9-141.9,85.8  c-58.5-9.2-75.6-27.1-114.9-58.8c-33.3-31.7-88.9-77.3-85.8-141.9c9.2-58.5,27.1-75.6,58.8-114.9c31.7-33.3,77.3-88.9,141.9-85.8  c58.5,9.2,75.6,27.1,114.9,58.8C402,148.8,457.5,194.3,454.5,258.9z" fill="#3765AF"/><path d="M146.7,262.8c0,42.3,24.5,78.8,60.2,95.9L156,219.4C150.2,232.6,146.7,247.3,146.7,262.8z M325.2,257.4  c0-13.2-4.7-22.1-8.9-29.5c-5.4-8.9-10.5-16.3-10.5-24.8c0-9.7,7.4-19,17.9-19c0.4,0,0.8,0,1.6,0c-19-17.5-44.2-27.9-71.8-27.9  c-37.3,0-69.9,19-88.9,48.1c2.3,0,5,0,7,0c11.3,0,28.3-1.6,28.3-1.6c5.8-0.4,6.6,8.2,0.8,8.9c0,0-5.8,0.8-12,1.2L227.4,328  l23.3-69.9L234,212.8c-5.8-0.4-11.3-1.2-11.3-1.2c-5.8-0.4-5-9.3,0.8-8.9c0,0,17.5,1.6,27.9,1.6c11.3,0,28.3-1.6,28.3-1.6  c5.8-0.4,6.6,8.2,0.8,8.9c0,0-5.8,0.8-12,1.2L307,327.3l10.5-35.3C322.5,278,325.2,266.3,325.2,257.4z M255.3,272.2l-31.8,92.8  c9.7,2.7,19.8,4.3,30.3,4.3c12.4,0,24.5-2.3,35.3-6.2c-0.4-0.4-0.4-0.8-0.8-1.6L255.3,272.2z M346.9,211.6c0.4,3.5,0.8,7,0.8,10.9  c0,10.9-1.9,22.9-8.2,38L307,354.4c31.8-18.6,52.8-52.8,52.8-92C360.1,244.2,355.1,226.7,346.9,211.6z M129.2,262.8  c0,68.3,55.9,124.2,124.2,124.2s124.2-55.9,124.2-124.2s-55.9-124.2-124.2-124.2S129.2,194.1,129.2,262.8z M135,262.8  c0-65.2,53.2-118.4,118.4-118.4s118.4,53.2,118.4,118.4s-53.2,118.4-118.4,118.4S135,328,135,262.8z" fill="#FFFFFF"/></svg>