<?xml version="1.0" encoding="UTF-8" standalone="no"?>
<!-- Created with Inkscape (http://www.inkscape.org/) -->

<svg
   xmlns:dc="http://purl.org/dc/elements/1.1/"
   xmlns:cc="http://creativecommons.org/ns#"
   xmlns:rdf="http://www.w3.org/1999/02/22-rdf-syntax-ns#"
   xmlns:svg="http://www.w3.org/2000/svg"
   xmlns="http://www.w3.org/2000/svg"
   xmlns:sodipodi="http://sodipodi.sourceforge.net/DTD/sodipodi-0.dtd"
   xmlns:inkscape="http://www.inkscape.org/namespaces/inkscape"
   width="545.84631"
   height="86.827339"
   id="svg2"
   version="1.1"
   inkscape:version="0.48.4 r9939"
   sodipodi:docname="KJCOMM-logo-crop.svg">
  <defs
     id="defs4" />
  <sodipodi:namedview
     id="base"
     pagecolor="#ffffff"
     bordercolor="#666666"
     borderopacity="1.0"
     inkscape:pageopacity="0.0"
     inkscape:pageshadow="2"
     inkscape:zoom="0.90509668"
     inkscape:cx="226.99843"
     inkscape:cy="-69.522296"
     inkscape:document-units="px"
     inkscape:current-layer="layer1"
     showgrid="false"
     inkscape:window-width="1301"
     inkscape:window-height="744"
     inkscape:window-x="65"
     inkscape:window-y="24"
     inkscape:window-maximized="1"
     fit-margin-top="0"
     fit-margin-left="0"
     fit-margin-right="0"
     fit-margin-bottom="0" />
  <metadata
     id="metadata7">
    <rdf:RDF>
      <cc:Work
         rdf:about="">
        <dc:format>image/svg+xml</dc:format>
        <dc:type
           rdf:resource="http://purl.org/dc/dcmitype/StillImage" />
        <dc:title></dc:title>
      </cc:Work>
    </rdf:RDF>
  </metadata>
  <g
     inkscape:label="Layer 1"
     inkscape:groupmode="layer"
     id="layer1"
     style="display:inline"
     transform="translate(-133.63443,-258.7524)">
    <g
       style="font-size:91.30109406px;font-style:normal;font-variant:normal;font-weight:300;font-stretch:normal;line-height:125%;letter-spacing:0px;word-spacing:0px;fill:#2196f3;fill-opacity:1;stroke:none;display:inline;font-family:Montserrat;-inkscape-font-specification:Montserrat Light"
       id="text2989">
      <path
         d="m 195.17137,333.9845 -25.1991,-37.52475 23.73828,-26.47732 -19.35583,0 -24.01219,26.84252 0,-26.84252 -16.7081,0 0,64.00207 16.7081,0 0,-15.61249 8.2171,-9.13011 16.6168,24.7426 19.99494,0"
         style="font-weight:bold;fill:#2196f3;-inkscape-font-specification:Montserrat Bold"
         id="path3865" />
      <path
         d="m 239.82189,313.16785 0,-43.18542 -38.71167,0 0,13.78647 21.91226,0 0,29.03374 c 0,4.83896 -2.55643,7.39539 -6.66498,7.39539 -3.74334,0 -8.76491,-2.37383 -13.42126,-7.21278 l -7.66929,11.41263 c 5.66066,6.57367 13.05607,10.31703 22.27747,10.31703 13.69515,0 22.27747,-7.85191 22.27747,-21.54706"
         style="font-weight:bold;fill:#2196f3;-inkscape-font-specification:Montserrat Bold"
         id="path3867" />
      <path
         d="m 272.96989,258.7524 -28.21204,86.82734 3.56074,0 28.12074,-86.82734 -3.46944,0"
         style="font-weight:300;-inkscape-font-specification:Montserrat Light"
         id="path3869" />
      <path
         d="m 285.45389,268.06511 0,10.31702 -8.94751,-5.20416 -1.27821,2.37383 8.94751,5.11286 -8.94751,5.11286 1.27821,2.46513 8.94751,-5.20416 0,10.31702 2.46513,0 0,-10.31702 8.94751,5.20416 1.27821,-2.46513 -9.03881,-5.11286 9.03881,-5.11286 -1.27821,-2.37383 -8.94751,5.20416 0,-10.31702 -2.46513,0"
         style="font-weight:300;-inkscape-font-specification:Montserrat Light"
         id="path3871" />
      <path
         d="m 353.25351,292.07729 9.67791,-11.59523 c -6.39107,-6.75628 -16.3429,-10.95614 -25.83821,-10.95614 -19.53841,0 -34.23791,13.87779 -34.23791,32.32059 0,18.80801 14.33429,32.8684 33.59881,32.8684 9.4953,0 19.72104,-4.65637 26.56861,-11.86915 l -9.76921,-10.49962 c -4.47375,4.56505 -10.59093,7.48669 -15.88639,7.48669 -9.86051,0 -17.34721,-7.85191 -17.34721,-18.16892 0,-10.22571 7.4867,-17.98632 17.34721,-17.98632 5.56936,0 11.68654,3.28685 15.88639,8.3997"
         style="font-weight:bold;fill:#757575"
         id="path3873" />
      <path
         d="m 399.51463,269.52592 c -19.81232,0 -34.60311,13.78649 -34.60311,32.41189 0,18.71671 14.79079,32.7771 34.60311,32.7771 19.81232,0 34.60312,-14.06039 34.60312,-32.7771 0,-18.5341 -14.7908,-32.41189 -34.60312,-32.41189 m 0.1826,14.24298 c 9.58661,0 17.25591,7.8519 17.25591,18.26021 0,10.40832 -7.6693,18.44283 -17.25591,18.44283 -9.4953,0 -17.62111,-8.03451 -17.62111,-18.44283 0,-10.40831 8.03451,-18.26021 17.62111,-18.26021"
         style="font-weight:bold;fill:#757575"
         id="path3875" />
      <path
         d="m 442.48892,269.98243 0,64.00207 14.88208,0 0,-40.53769 14.88208,34.14661 10.95613,0 14.88208,-34.14661 0.0913,40.53769 14.79078,0 0,-64.00207 -18.26022,0 -16.982,37.34215 -16.98201,-37.34215 -18.26022,0"
         style="font-weight:bold;fill:#757575"
         id="path3877" />
      <path
         d="m 525.40885,269.98243 0,64.00207 14.88207,0 0,-40.53769 14.88208,34.14661 10.95613,0 14.88208,-34.14661 0.0913,40.53769 14.79078,0 0,-64.00207 -18.26022,0 -16.982,37.34215 -16.98201,-37.34215 -18.26021,0"
         style="font-weight:bold;fill:#757575"
         id="path3879" />
    </g>
    <path
       style="fill:#2196f3;fill-opacity:1;stroke:#757575;stroke-width:3.00282359000000021;stroke-linecap:butt;stroke-linejoin:miter;stroke-miterlimit:4;stroke-opacity:1;stroke-dasharray:none;display:inline"
       d="m 607.5793,331.49128 70.40003,0"
       id="path3815"
       inkscape:connector-curvature="0" />
  </g>
</svg>
